<?xml version="1.0" encoding="UTF-8"?>
<svg width="10px" height="12px" viewBox="0 0 10 12" version="1.1" xmlns="http://www.w3.org/2000/svg" xmlns:xlink="http://www.w3.org/1999/xlink">
    <!-- Generator: Sketch 59.1 (86144) - https://sketch.com -->
    <title>形状</title>
    <desc>Created with Sketch.</desc>
    <g id="页面-1" stroke="none" stroke-width="1" fill="none" fill-rule="evenodd">
        <g id="竞足投注助手首页" transform="translate(-273.000000, -81.000000)" fill="#FF2222" fill-rule="nonzero">
            <g id="编组复制" transform="translate(0.000000, 64.000000)">
                <g id="Rectangle-Copy-37" transform="translate(265.000000, 9.000000)">
                    <g id="形状" transform="translate(8.000000, 8.000000)">
                        <path d="M4.73590848,0.219023233 C2.22073464,0.251438286 0.207908368,2.19160294 0.235969273,4.55660938 C0.23332574,5.47694969 0.54006897,6.37453745 1.11238595,7.12116761 L3.81333447,10.8212219 C4.14800377,11.2524174 4.79099949,11.3468626 5.24959494,11.0321889 C5.3368273,10.9723551 5.41347633,10.8999586 5.47671651,10.817668 L8.35370428,7.12709063 C8.92891435,6.37889622 9.23754415,5.47873432 9.23538954,4.55553247 C9.26345045,2.19063372 7.25062418,0.250361372 4.73545034,0.218054007 L4.73590848,0.219023233 Z M7.74814993,6.68949824 L4.84782452,10.4290616 C4.80031523,10.4929041 4.72280117,10.5307798 4.64022106,10.530554 C4.56281744,10.5320315 4.4891107,10.4992733 4.44116667,10.4417281 L1.72268202,6.6920097 C1.24264289,6.06436391 0.98504301,5.30924195 0.986769922,4.53477506 C0.937324033,2.57780202 2.57550823,0.953433606 4.64599746,0.906589424 C6.71648669,0.859745243 8.43507823,2.40822391 8.48463966,4.36508774 C8.48602599,4.42165018 8.48602599,4.47821262 8.48463966,4.53466586 C8.4864881,5.30808623 8.22943875,6.06228848 7.75034497,6.68938904 L7.74814993,6.68938904 L7.74814993,6.68949824 Z"></path>
                        <path d="M4.74729083,2.28055401 C3.50457466,2.2747517 2.49206964,3.19336211 2.48567941,4.33248016 C2.4793494,5.47159822 3.48150366,6.3996965 4.72421983,6.40555401 C5.966936,6.41135632 6.97931632,5.49274592 6.98567941,4.35374217 L6.98567941,4.34311117 C6.98767175,3.20742247 5.98614105,2.28469683 4.74729083,2.28055401 L4.74729083,2.28055401 Z M4.74829496,5.71800522 C3.91991287,5.72433511 3.24277348,5.1139352 3.23573263,4.35459674 C3.22882719,3.59525827 3.89472833,2.9745568 4.7231104,2.9681028 C5.55149249,2.96177291 6.22863188,3.57217281 6.23567941,4.33151126 L6.23567941,4.34305401 C6.23810995,5.09891724 5.57275041,5.71390941 4.74829496,5.71800522 Z"></path>
                    </g>
                </g>
            </g>
        </g>
    </g>
</svg>