<?xml version="1.0" encoding="UTF-8"?>
<svg width="10px" height="11px" viewBox="0 0 10 11" version="1.1" xmlns="http://www.w3.org/2000/svg" xmlns:xlink="http://www.w3.org/1999/xlink">
    <!-- Generator: Sketch 59.1 (86144) - https://sketch.com -->
    <title>Combined Shape</title>
    <desc>Created with Sketch.</desc>
    <g id="页面-1" stroke="none" stroke-width="1" fill="none" fill-rule="evenodd">
        <g id="竞足投注助手首页" transform="translate(-349.000000, -81.000000)" fill="#999999">
            <g id="编组复制" transform="translate(0.000000, 64.000000)">
                <path d="M358.109848,18.1401519 C358.390152,18.4204556 358.390152,18.8749177 358.109848,19.1552214 L354.764924,22.4999241 L358.109848,25.8447786 C358.390152,26.1250823 358.390152,26.5795444 358.109848,26.8598481 C357.829544,27.1401519 357.375082,27.1401519 357.094779,26.8598481 L353.749924,23.5149241 L350.405221,26.8598481 C350.124918,27.1401519 349.670456,27.1401519 349.390152,26.8598481 C349.109848,26.5795444 349.109848,26.1250823 349.390152,25.8447786 L352.734924,22.4999241 L349.390152,19.1552214 C349.109848,18.8749177 349.109848,18.4204556 349.390152,18.1401519 C349.670456,17.8598481 350.124918,17.8598481 350.405221,18.1401519 L353.749924,21.4849241 L357.094779,18.1401519 C357.375082,17.8598481 357.829544,17.8598481 358.109848,18.1401519 Z" id="Combined-Shape"></path>
            </g>
        </g>
    </g>
</svg>