<?xml version="1.0" encoding="UTF-8"?>
<svg width="20px" height="18px" viewBox="0 0 20 18" version="1.1" xmlns="http://www.w3.org/2000/svg" xmlns:xlink="http://www.w3.org/1999/xlink">
  <g fill="#FFFFFF" fill-rule="nonzero">
    <path d="M12.7343304,0.325 L12.7343304,1.675 L1.84783819,1.675 C1.69399447,1.675 1.63061372,1.81703121 1.71481974,1.90260186 L8.69839502,8.99700844 C8.97099589,9.27411509 9.12433673,9.64453591 9.12433673,10.0311678 L9.12433673,16.183707 C9.12433673,16.2892897 9.27386165,16.369386 9.39525189,16.2967185 L10.7770789,15.4696404 C10.8235405,15.4418121 10.8483539,15.3988315 10.8483539,15.3565231 L10.8483539,10.206011 C10.8483539,9.82471347 10.9975404,9.45889307 11.2636753,9.18273767 L18.2863365,1.90131737 C18.3688157,1.81584138 18.3050962,1.675 18.1524255,1.675 L16.0937655,1.675 L16.0937655,0.325 L18.1524255,0.325 C19.4769522,0.325 20.1812503,1.88173497 19.2579247,2.83860948 L12.2355609,10.1197213 C12.2108175,10.1453963 12.1983539,10.1759582 12.1983539,10.206011 L12.1983539,15.3565231 C12.1983539,15.8775664 11.920884,16.3581848 11.4705805,16.6278958 L10.0886141,17.4550574 C9.08263598,18.0572628 7.77433673,17.3564437 7.77433673,16.183707 L7.77433673,10.0311678 C7.77433673,10.0006469 7.76151526,9.96967446 7.73616208,9.94390217 L0.752662031,2.84957205 C-0.185468692,1.89623818 0.515688871,0.325 1.84783819,0.325 L12.7343304,0.325 Z"></path>
  </g>
</svg>