<?xml version="1.0" encoding="UTF-8"?>
<svg width="15px" height="14px" viewBox="0 0 15 14" version="1.1" xmlns="http://www.w3.org/2000/svg" xmlns:xlink="http://www.w3.org/1999/xlink">
  <g transform="translate(-1.000000, -1.000000)" fill="none" stroke="#D2D2D2" stroke-width="1.3">
    <path d="M7.81493931,12.6915165 L5.37147057,13.9761241 C4.88262599,14.2331249 4.27799883,14.0451784 4.02099802,13.5563338 C3.91865895,13.3616733 3.88334428,13.1387052 3.92052112,12.9219476 L4.38718213,10.2011052 C4.44282006,9.8767111 4.33527158,9.5457109 4.09958549,9.31597374 L2.12277776,7.38906244 C1.72729418,7.00356122 1.71920188,6.37044796 2.10470309,5.97496438 C2.25821169,5.81748075 2.4593541,5.71499357 2.67699113,5.68336906 L5.40887223,5.2864035 C5.73458239,5.23907504 6.01614798,5.03450567 6.16180999,4.73936219 L7.38354436,2.26385798 C7.62796666,1.76860432 8.22759249,1.56526532 8.72284615,1.80968761 C8.92005876,1.90701785 9.07968628,2.06664537 9.17701652,2.26385798 L10.3987509,4.73936219 C10.5444129,5.03450567 10.8259785,5.23907504 11.1516886,5.2864035 L13.8835697,5.68336906 C14.4301146,5.76278668 14.8087961,6.27022953 14.7293784,6.81677439 C14.6977539,7.03441142 14.5952668,7.23555383 14.4377831,7.38906244 L12.4609754,9.31597374 C12.2252893,9.5457109 12.1177408,9.8767111 12.1733788,10.2011052 L12.6400398,12.9219476 C12.7334008,13.466284 12.3678129,13.98324 11.8234765,14.076601 C11.6067189,14.1137778 11.3837508,14.0784631 11.1890903,13.9761241 L8.74562157,12.6915165 C8.45429754,12.5383584 8.10626334,12.5383584 7.81493931,12.6915165 Z"></path>
  </g>
</svg>